<svg width="15" height="20" viewBox="0 0 15 20" fill="none" xmlns="http://www.w3.org/2000/svg">
<path d="M7.00966 15L6.2041 14.2778C5.26892 13.4352 4.49577 12.7083 3.88466 12.0972C3.27355 11.4861 2.78744 10.9375 2.42632 10.4514C2.06521 9.96528 1.8129 9.51852 1.66938 9.11111C1.52586 8.7037 1.4541 8.28704 1.4541 7.86111C1.4541 6.99074 1.74577 6.26389 2.3291 5.68056C2.91244 5.09722 3.63929 4.80556 4.50966 4.80556C4.99114 4.80556 5.44947 4.90741 5.88466 5.11111C6.31984 5.31481 6.69484 5.60185 7.00966 5.97222C7.32447 5.60185 7.69947 5.31481 8.13466 5.11111C8.56984 4.90741 9.02818 4.80556 9.50966 4.80556C10.38 4.80556 11.1069 5.09722 11.6902 5.68056C12.2735 6.26389 12.5652 6.99074 12.5652 7.86111C12.5652 8.28704 12.4935 8.7037 12.3499 9.11111C12.2064 9.51852 11.9541 9.96528 11.593 10.4514C11.2319 10.9375 10.7458 11.4861 10.1347 12.0972C9.52355 12.7083 8.7504 13.4352 7.81521 14.2778L7.00966 15ZM7.00966 13.5C7.89855 12.7037 8.63003 12.0208 9.2041 11.4514C9.77818 10.8819 10.2319 10.3866 10.5652 9.96528C10.8985 9.54398 11.13 9.16898 11.2597 8.84028C11.3893 8.51157 11.4541 8.18518 11.4541 7.86111C11.4541 7.30556 11.2689 6.84259 10.8985 6.47222C10.5282 6.10185 10.0652 5.91667 9.50966 5.91667C9.07447 5.91667 8.67169 6.03935 8.30132 6.28472C7.93095 6.53009 7.67632 6.84259 7.53744 7.22222H6.48188C6.34299 6.84259 6.08836 6.53009 5.71799 6.28472C5.34762 6.03935 4.94484 5.91667 4.50966 5.91667C3.9541 5.91667 3.49114 6.10185 3.12077 6.47222C2.7504 6.84259 2.56521 7.30556 2.56521 7.86111C2.56521 8.18518 2.63003 8.51157 2.75966 8.84028C2.88929 9.16898 3.12077 9.54398 3.4541 9.96528C3.78744 10.3866 4.24114 10.8819 4.81521 11.4514C5.38929 12.0208 6.12077 12.7037 7.00966 13.5Z" fill="#868E96"/>
</svg>
