<svg width="25" height="32" viewBox="0 0 25 32" fill="none" xmlns="http://www.w3.org/2000/svg">
<path d="M7.14865 20.8611H9.19032L15.0237 15.0764L12.9334 12.9861L7.14865 18.7708V20.8611ZM15.7042 14.3958L16.725 13.3264C16.8223 13.2292 16.8709 13.1157 16.8709 12.9861C16.8709 12.8565 16.8223 12.7431 16.725 12.6458L15.3639 11.2847C15.2667 11.1875 15.1533 11.1389 15.0237 11.1389C14.894 11.1389 14.7806 11.1875 14.6834 11.2847L13.6139 12.3056L15.7042 14.3958ZM5.20421 24.75C4.66949 24.75 4.21173 24.5596 3.83095 24.1788C3.45016 23.798 3.25977 23.3403 3.25977 22.8056V9.19444C3.25977 8.65972 3.45016 8.20197 3.83095 7.82118C4.21173 7.44039 4.66949 7.25 5.20421 7.25H9.28754C9.49819 6.66667 9.85062 6.19676 10.3448 5.84028C10.839 5.4838 11.394 5.30556 12.0098 5.30556C12.6255 5.30556 13.1805 5.4838 13.6747 5.84028C14.1689 6.19676 14.5213 6.66667 14.732 7.25H18.8153C19.35 7.25 19.8078 7.44039 20.1886 7.82118C20.5694 8.20197 20.7598 8.65972 20.7598 9.19444V22.8056C20.7598 23.3403 20.5694 23.798 20.1886 24.1788C19.8078 24.5596 19.35 24.75 18.8153 24.75H5.20421ZM5.20421 22.8056H18.8153V9.19444H5.20421V22.8056ZM12.0098 8.46528C12.2204 8.46528 12.3946 8.39641 12.5323 8.25868C12.6701 8.12095 12.7389 7.94676 12.7389 7.73611C12.7389 7.52546 12.6701 7.35127 12.5323 7.21354C12.3946 7.07581 12.2204 7.00694 12.0098 7.00694C11.7991 7.00694 11.6249 7.07581 11.4872 7.21354C11.3495 7.35127 11.2806 7.52546 11.2806 7.73611C11.2806 7.94676 11.3495 8.12095 11.4872 8.25868C11.6249 8.39641 11.7991 8.46528 12.0098 8.46528Z" fill="#3498DB"/>
</svg>
