<svg width="88" height="40" viewBox="0 0 88 40" fill="none" xmlns="http://www.w3.org/2000/svg">
<path d="M27.3889 28.75L21.2639 22.625C20.7778 23.0139 20.2188 23.3218 19.5868 23.5486C18.9549 23.7755 18.2824 23.8889 17.5694 23.8889C15.8032 23.8889 14.3084 23.2772 13.0851 22.0538C11.8617 20.8304 11.25 19.3356 11.25 17.5694C11.25 15.8032 11.8617 14.3084 13.0851 13.0851C14.3084 11.8617 15.8032 11.25 17.5694 11.25C19.3356 11.25 20.8304 11.8617 22.0538 13.0851C23.2772 14.3084 23.8889 15.8032 23.8889 17.5694C23.8889 18.2824 23.7755 18.9549 23.5486 19.5868C23.3218 20.2188 23.0139 20.7778 22.625 21.2639L28.75 27.3889L27.3889 28.75ZM17.5694 21.9444C18.7847 21.9444 19.8177 21.5191 20.6684 20.6684C21.5191 19.8177 21.9444 18.7847 21.9444 17.5694C21.9444 16.3542 21.5191 15.3212 20.6684 14.4705C19.8177 13.6198 18.7847 13.1944 17.5694 13.1944C16.3542 13.1944 15.3212 13.6198 14.4705 14.4705C13.6198 15.3212 13.1944 16.3542 13.1944 17.5694C13.1944 18.7847 13.6198 19.8177 14.4705 20.6684C15.3212 21.5191 16.3542 21.9444 17.5694 21.9444Z" fill="#212529"/>
<path d="M61.1944 26.8056H62.5799L72.0833 17.3021L70.6979 15.9167L61.1944 25.4201V26.8056ZM59.25 28.75V24.6181L72.0833 11.809C72.2778 11.6308 72.4925 11.4931 72.7274 11.3958C72.9624 11.2986 73.2095 11.25 73.4688 11.25C73.728 11.25 73.9792 11.2986 74.2222 11.3958C74.4653 11.4931 74.6759 11.6389 74.8542 11.8333L76.191 13.1944C76.3854 13.3727 76.5272 13.5833 76.6163 13.8264C76.7054 14.0694 76.75 14.3125 76.75 14.5556C76.75 14.8148 76.7054 15.0619 76.6163 15.2969C76.5272 15.5318 76.3854 15.7465 76.191 15.941L63.3819 28.75H59.25ZM71.3785 16.6215L70.6979 15.9167L72.0833 17.3021L71.3785 16.6215Z" fill="#212529"/>
</svg>
